<svg width="50" height="48" viewBox="0 0 50 48" fill="none" xmlns="http://www.w3.org/2000/svg">
<g clip-path="url(#clip0_5_2)">
<path d="M0 10C0 4.47715 4.47715 0 10 0H40C45.5228 0 50 4.47715 50 10V38C50 43.5229 45.5228 48 40 48H10C4.47715 48 0 43.5228 0 38V10Z" fill="url(#paint0_linear_5_2)"/>
<g filter="url(#filter0_d_5_2)">
<path d="M13.9375 30.9062V13.0234H24.2031V14.8984H16.0234V20.9219H23.1016V22.7969H16.0234V30.9062H13.9375ZM25.9375 30.7422V12.8594H28.0703V28.6797H36.3672V30.7422H25.9375Z" fill="url(#paint1_linear_5_2)"/>
</g>
</g>
<defs>
<filter id="filter0_d_5_2" x="9.9375" y="9.8594" width="30.4297" height="26.0468" filterUnits="userSpaceOnUse" color-interpolation-filters="sRGB">
<feFlood flood-opacity="0" result="BackgroundImageFix"/>
<feColorMatrix in="SourceAlpha" type="matrix" values="0 0 0 0 0 0 0 0 0 0 0 0 0 0 0 0 0 0 127 0" result="hardAlpha"/>
<feOffset dy="1"/>
<feGaussianBlur stdDeviation="2"/>
<feComposite in2="hardAlpha" operator="out"/>
<feColorMatrix type="matrix" values="0 0 0 0 0 0 0 0 0 0 0 0 0 0 0 0 0 0 0.25 0"/>
<feBlend mode="normal" in2="BackgroundImageFix" result="effect1_dropShadow_5_2"/>
<feBlend mode="normal" in="SourceGraphic" in2="effect1_dropShadow_5_2" result="shape"/>
</filter>
<linearGradient id="paint0_linear_5_2" x1="25" y1="0" x2="25" y2="48" gradientUnits="userSpaceOnUse">
<stop stop-color="white"/>
<stop offset="0.365" stop-color="#5DC4FD"/>
<stop offset="0.555" stop-color="#0094FF"/>
<stop offset="0.705" stop-color="#0099FE" stop-opacity="0.965731"/>
<stop offset="0.815" stop-color="#009CFD" stop-opacity="0.9406"/>
<stop offset="1" stop-color="#00ADFA" stop-opacity="0.82"/>
</linearGradient>
<linearGradient id="paint1_linear_5_2" x1="25" y1="10" x2="25" y2="37" gradientUnits="userSpaceOnUse">
<stop offset="0.1" stop-color="white"/>
<stop offset="0.47" stop-color="#90D5FE"/>
<stop offset="1" stop-color="#00B0FF"/>
</linearGradient>
<clipPath id="clip0_5_2">
<rect width="50" height="48" fill="white"/>
</clipPath>
</defs>
</svg>
