<svg width="50" height="48" viewBox="0 0 50 48" fill="none" xmlns="http://www.w3.org/2000/svg">
<path d="M0 10C0 4.47715 4.47715 0 10 0H40C45.5228 0 50 4.47715 50 10V38C50 43.5228 45.5228 48 40 48H10C4.47715 48 0 43.5228 0 38V10Z" fill="url(#paint0_linear_0_1)"/>
<mask id="path-2-outside-1_0_1" maskUnits="userSpaceOnUse" x="14" y="11" width="26" height="21" fill="black">
<rect fill="white" x="14" y="11" width="26" height="21"/>
<path d="M15.9375 30.9062V13.0234H26.2031V14.8984H18.0234V20.9219H25.1016V22.7969H18.0234V30.9062H15.9375ZM27.9375 30.7422V12.8594H30.0703V28.6797H38.3672V30.7422H27.9375Z"/>
</mask>
<path d="M15.9375 30.9062V13.0234H26.2031V14.8984H18.0234V20.9219H25.1016V22.7969H18.0234V30.9062H15.9375ZM27.9375 30.7422V12.8594H30.0703V28.6797H38.3672V30.7422H27.9375Z" fill="url(#paint1_linear_0_1)"/>
<path d="M15.9375 30.9062H14.9375V31.9062H15.9375V30.9062ZM15.9375 13.0234V12.0234H14.9375V13.0234H15.9375ZM26.2031 13.0234H27.2031V12.0234H26.2031V13.0234ZM26.2031 14.8984V15.8984H27.2031V14.8984H26.2031ZM18.0234 14.8984V13.8984H17.0234V14.8984H18.0234ZM18.0234 20.9219H17.0234V21.9219H18.0234V20.9219ZM25.1016 20.9219H26.1016V19.9219H25.1016V20.9219ZM25.1016 22.7969V23.7969H26.1016V22.7969H25.1016ZM18.0234 22.7969V21.7969H17.0234V22.7969H18.0234ZM18.0234 30.9062V31.9062H19.0234V30.9062H18.0234ZM16.9375 30.9062V13.0234H14.9375V30.9062H16.9375ZM15.9375 14.0234H26.2031V12.0234H15.9375V14.0234ZM25.2031 13.0234V14.8984H27.2031V13.0234H25.2031ZM26.2031 13.8984H18.0234V15.8984H26.2031V13.8984ZM17.0234 14.8984V20.9219H19.0234V14.8984H17.0234ZM18.0234 21.9219H25.1016V19.9219H18.0234V21.9219ZM24.1016 20.9219V22.7969H26.1016V20.9219H24.1016ZM25.1016 21.7969H18.0234V23.7969H25.1016V21.7969ZM17.0234 22.7969V30.9062H19.0234V22.7969H17.0234ZM18.0234 29.9062H15.9375V31.9062H18.0234V29.9062ZM27.9375 30.7422H26.9375V31.7422H27.9375V30.7422ZM27.9375 12.8594V11.8594H26.9375V12.8594H27.9375ZM30.0703 12.8594H31.0703V11.8594H30.0703V12.8594ZM30.0703 28.6797H29.0703V29.6797H30.0703V28.6797ZM38.3672 28.6797H39.3672V27.6797H38.3672V28.6797ZM38.3672 30.7422V31.7422H39.3672V30.7422H38.3672ZM28.9375 30.7422V12.8594H26.9375V30.7422H28.9375ZM27.9375 13.8594H30.0703V11.8594H27.9375V13.8594ZM29.0703 12.8594V28.6797H31.0703V12.8594H29.0703ZM30.0703 29.6797H38.3672V27.6797H30.0703V29.6797ZM37.3672 28.6797V30.7422H39.3672V28.6797H37.3672ZM38.3672 29.7422H27.9375V31.7422H38.3672V29.7422Z" fill="#8E8E8E" mask="url(#path-2-outside-1_0_1)"/>
<defs>
<linearGradient id="paint0_linear_0_1" x1="25" y1="0" x2="25" y2="48" gradientUnits="userSpaceOnUse">
<stop stop-color="#D9D9D9"/>
<stop offset="0.435" stop-color="white"/>
<stop offset="1" stop-color="#009DE3" stop-opacity="0.360784"/>
</linearGradient>
<linearGradient id="paint1_linear_0_1" x1="29" y1="10" x2="29" y2="39" gradientUnits="userSpaceOnUse">
<stop offset="0.21" stop-color="#009DE3" stop-opacity="0.360784"/>
<stop offset="0.515" stop-color="white"/>
</linearGradient>
</defs>
</svg>
